HIERARCHY
ROOT Hips
{
 OFFSET 0.000000 0.000000 0.000000
 CHANNELS 6 Xposition Yposition Zposition Yrotation Xrotation Zrotation
 JOINT Chest
 {
  OFFSET 0.000000 9.585900 0.002600
  CHANNELS 3 Yrotation Xrotation Zrotation
  JOINT Chest2
  {
   OFFSET 0.000000 9.601200 -0.005300
   CHANNELS 3 Yrotation Xrotation Zrotation
   JOINT Chest3
   {
    OFFSET 0.000000 9.561800 0.000000
    CHANNELS 3 Yrotation Xrotation Zrotation
    JOINT Chest4
    {
     OFFSET 0.000000 9.552100 0.000000
     CHANNELS 3 Yrotation Xrotation Zrotation
     JOINT Neck
     {
      OFFSET 0.000000 14.453000 0.000000
      CHANNELS 3 Yrotation Xrotation Zrotation
      JOINT Head
      {
       OFFSET 0.000000 8.936500 -0.011300
       CHANNELS 3 Yrotation Xrotation Zrotation
       End Site
       {
        OFFSET 0.000000 17.073600 -0.006000
       }
      }
     }
     JOINT RightCollar
     {
      OFFSET -2.921100 9.558500 0.000000
      CHANNELS 3 Yrotation Xrotation Zrotation
      JOINT RightShoulder
      {
       OFFSET -13.519700 0.000000 0.000000
       CHANNELS 3 Yrotation Xrotation Zrotation
       JOINT RightElbow
       {
        OFFSET 0.000000 -29.696600 0.000000
        CHANNELS 3 Yrotation Xrotation Zrotation
        JOINT RightWrist
        {
         OFFSET 0.000000 -24.004700 0.000000
         CHANNELS 3 Yrotation Xrotation Zrotation
         End Site
         {
          OFFSET 0.000000 -17.728500 0.000000
         }
        }
       }
      }
     }
     JOINT LeftCollar
     {
      OFFSET 2.921100 9.558500 0.000000
      CHANNELS 3 Yrotation Xrotation Zrotation
      JOINT LeftShoulder
      {
       OFFSET 13.519700 0.000000 0.000000
       CHANNELS 3 Yrotation Xrotation Zrotation
       JOINT LeftElbow
       {
        OFFSET 0.000000 -29.696600 0.000000
        CHANNELS 3 Yrotation Xrotation Zrotation
        JOINT LeftWrist
        {
         OFFSET 0.000000 -24.004700 0.000000
         CHANNELS 3 Yrotation Xrotation Zrotation
         End Site
         {
          OFFSET 0.000000 -17.728500 0.000000
         }
        }
       }
      }
     }
    }
   }
  }
 }
 JOINT RightHip
 {
  OFFSET -7.771700 -0.012900 -0.001300
  CHANNELS 3 Yrotation Xrotation Zrotation
  JOINT RightKnee
  {
   OFFSET 0.000000 -40.869800 0.001200
   CHANNELS 3 Yrotation Xrotation Zrotation
   JOINT RightAnkle
   {
    OFFSET 0.000000 -39.717900 0.002100
    CHANNELS 3 Yrotation Xrotation Zrotation
    JOINT RightToe
    {
     OFFSET 0.000000 -4.965400 11.033500
     CHANNELS 3 Yrotation Xrotation Zrotation
     End Site
     {
      OFFSET 0.000000 -1.423100 5.872300
     }
    }
   }
  }
 }
 JOINT LeftHip
 {
  OFFSET 7.771700 -0.012900 -0.001300
  CHANNELS 3 Yrotation Xrotation Zrotation
  JOINT LeftKnee
  {
   OFFSET 0.000000 -40.869800 0.001200
   CHANNELS 3 Yrotation Xrotation Zrotation
   JOINT LeftAnkle
   {
    OFFSET 0.000000 -39.717900 0.002100
    CHANNELS 3 Yrotation Xrotation Zrotation
    JOINT LeftToe
    {
     OFFSET 0.000000 -4.965400 11.033500
     CHANNELS 3 Yrotation Xrotation Zrotation
     End Site
     {
      OFFSET 0.000000 -1.423100 5.872300
     }
    }
   }
  }
 }
}
MOTION
Frames: 8
Frame Time: 0.008333
-149.753025 49.127993 19.099885 177.787310 -31.572609 -3.763204 -0.485845 19.673451 2.029102 -0.124174 2.406292 0.208124 -0.121570 3.933437 0.336126 -0.530014 16.972382 1.432271 3.361641 16.265221 -1.971776 6.942582 -5.421405 -4.889140 -0.571423 -3.326875 -3.582177 5.853391 -8.914892 -12.648848 -35.172238 -39.325112 87.491088 2.571970 1.804456 -8.202275 -0.520016 -2.839187 1.800336 -7.391245 -3.566941 13.577795 66.336787 -65.671010 -105.647334 4.267165 10.672384 6.042628 -7.616726 -52.238878 -7.546740 -136.801750 80.190942 -123.778791 -30.409706 -3.739696 -3.898521 -0.050290 -13.579048 0.487289 -11.430234 -55.258655 17.207716 -72.522144 64.855481 -78.021966 30.950647 7.011461 17.675286 -0.013299 -0.380703 -0.028285
-149.751165 49.149379 19.103003 177.742526 -31.576744 -3.818267 -0.460737 19.687876 2.098678 -0.094741 2.398519 0.208374 -0.151352 3.943866 0.340655 -0.526830 16.978194 1.443010 3.369217 16.269691 -1.969262 6.953561 -5.407506 -4.882602 -0.583251 -3.352379 -3.590115 5.853490 -8.901180 -12.639896 -35.226631 -39.299179 87.504484 2.596447 1.835557 -8.176732 -0.599429 -2.882960 1.839159 -7.341606 -3.617159 13.576501 66.283978 -65.645358 -105.609213 4.304709 10.681591 6.058035 -7.642293 -52.222757 -7.432559 -136.779929 80.220142 -123.739436 -30.420292 -3.727154 -3.906372 -0.033804 -13.571599 0.480519 -11.516269 -55.243836 17.323890 -72.603333 64.867411 -78.059984 30.916764 7.019561 17.607201 0.039124 -0.384311 -0.018713
-149.753979 49.166501 19.107787 177.710936 -31.562688 -3.844963 -0.451140 19.686119 2.137867 -0.095663 2.399786 0.209664 -0.180150 3.964912 0.351670 -0.504412 16.966827 1.441468 3.376395 16.271212 -1.967692 6.963581 -5.401543 -4.880775 -0.596392 -3.383554 -3.598032 5.853252 -8.884438 -12.631395 -35.271174 -39.280300 87.520807 2.577582 1.797731 -8.198059 -0.622682 -2.915502 1.840585 -7.343572 -3.670151 13.609217 66.247347 -65.623807 -105.584949 4.281172 10.726621 5.976925 -7.664407 -52.231144 -7.362741 -136.766191 80.240274 -123.717525 -30.415315 -3.732450 -3.921546 -0.027876 -13.555031 0.479638 -11.586971 -55.262710 17.381556 -72.645911 64.908385 -78.086479 30.943291 7.049990 17.593395 0.021957 -0.426967 -0.027421
-149.752804 49.182579 19.110345 177.697245 -31.560749 -3.894432 -0.468336 19.715602 2.190156 -0.076341 2.385087 0.206035 -0.176873 3.971426 0.355395 -0.509819 16.973025 1.450857 3.384682 16.263141 -1.973958 6.969806 -5.385478 -4.849888 -0.606815 -3.413881 -3.614023 5.760408 -8.857273 -12.564852 -35.222799 -39.319539 87.526378 2.558830 1.758895 -8.221841 -0.636033 -2.949557 1.832475 -7.354132 -3.712634 13.648097 66.228665 -65.608849 -105.572984 4.257886 10.770012 5.900744 -7.702719 -52.217416 -7.283147 -136.712175 80.251868 -123.643246 -30.400461 -3.748390 -3.955391 -0.035867 -13.533301 0.500778 -11.660547 -55.256080 17.474585 -72.691940 64.906916 -78.108856 30.914471 7.057654 17.547364 0.051448 -0.431544 -0.005084
-149.756552 49.195204 19.113319 177.692062 -31.547848 -3.907753 -0.478611 19.720630 2.206948 -0.079498 2.386126 0.206148 -0.175656 3.977292 0.358839 -0.513566 16.980378 1.459226 3.394452 16.239614 -1.995342 6.973278 -5.382497 -4.840202 -0.621941 -3.448446 -3.626394 5.724483 -8.838178 -12.522997 -35.183532 -39.354400 87.519675 2.555760 1.751761 -8.228574 -0.627244 -2.982994 1.812212 -7.365959 -3.731099 13.669905 66.226920 -65.629531 -105.592487 4.283176 10.777084 5.897750 -7.707986 -52.223023 -7.264122 -136.661627 80.254786 -123.577133 -30.386903 -3.783644 -4.007120 -0.046228 -13.495834 0.542640 -11.695916 -55.277497 17.486640 -72.720757 64.935126 -78.127737 30.926708 7.080574 17.549650 0.038410 -0.463511 -0.012533
-149.764034 49.205287 19.115856 177.671639 -31.532404 -3.879135 -0.477945 19.713049 2.188377 -0.090129 2.398003 0.210412 -0.175716 3.983089 0.361221 -0.515627 16.988523 1.467136 3.399755 16.232212 -1.991970 6.986582 -5.391178 -4.837621 -0.636908 -3.482023 -3.638773 5.734203 -8.834127 -12.513138 -35.197602 -39.357361 87.524991 2.555011 1.748695 -8.233146 -0.659175 -3.023268 1.809635 -7.339799 -3.742194 13.674809 66.231649 -65.648310 -105.609470 4.304593 10.783733 5.893343 -7.657408 -52.254905 -7.302160 -136.686510 80.242356 -123.592127 -30.384369 -3.797659 -4.038678 -0.045188 -13.480537 0.568679 -11.687204 -55.307109 17.432915 -72.731026 64.986091 -78.135184 30.969838 7.102539 17.567933 -0.003122 -0.504429 -0.032640
-149.764315 49.215061 19.116830 177.641880 -31.528935 -3.877588 -0.456598 19.716928 2.204101 -0.099041 2.409663 0.215483 -0.173836 3.984466 0.359462 -0.519225 17.003787 1.477571 3.406602 16.255211 -1.954869 7.003098 -5.426422 -4.870077 -0.647062 -3.519475 -3.643315 5.740264 -8.827218 -12.510364 -35.238177 -39.353668 87.542197 2.538762 1.688480 -8.284302 -0.730911 -3.069961 1.819635 -7.291611 -3.755930 13.691277 66.241008 -65.638656 -105.610529 4.284902 10.807509 5.844388 -7.648308 -52.270833 -7.280832 -136.715642 80.232026 -123.620154 -30.374199 -3.793945 -4.045608 -0.056678 -13.482410 0.572847 -11.703603 -55.310937 17.447090 -72.769210 65.009338 -78.153031 30.956724 7.103616 17.540963 0.007346 -0.510644 -0.031003
-149.760496 49.225059 19.115499 177.613728 -31.541859 -3.891643 -0.442748 19.752389 2.232794 -0.099249 2.412699 0.216767 -0.169867 3.986313 0.362108 -0.516136 17.003658 1.479775 3.413128 16.259142 -1.943597 7.025977 -5.417298 -4.820629 -0.658930 -3.549634 -3.640697 5.691665 -8.806344 -12.470793 -35.221831 -39.399388 87.541284 2.533299 1.670378 -8.296269 -0.755126 -3.100466 1.818393 -7.297944 -3.772462 13.722901 66.244497 -65.627931 -105.601249 4.224107 10.854982 5.765272 -7.651363 -52.268739 -7.240403 -136.747833 80.217206 -123.649481 -30.359514 -3.781256 -4.046837 -0.077133 -13.494973 0.574981 -11.740804 -55.294416 17.482504 -72.854989 65.019897 -78.196990 30.922055 7.088069 17.466647 0.048958 -0.496323 -0.012591
